<mxfile host="app.diagrams.net" agent="Mozilla/5.0 (Windows NT 10.0; Win64; x64) AppleWebKit/537.36 (KHTML, like Gecko) Chrome/130.0.0.0 Safari/537.36" version="24.8.4">
  <diagram name="Trang-1" id="Oqiq_-FgtZO_rAurKS06">
    <mxGraphModel dx="1434" dy="780" grid="1" gridSize="10" guides="1" tooltips="1" connect="1" arrows="1" fold="1" page="1" pageScale="1" pageWidth="827" pageHeight="1169" math="0" shadow="0">
      <root>
        <mxCell id="0" />
        <mxCell id="1" parent="0" />
        <mxCell id="N5POL5rpI1_weTUqJshR-1" value="Người dùng" style="swimlane;fontStyle=1;align=center;verticalAlign=top;childLayout=stackLayout;horizontal=1;startSize=26;horizontalStack=0;resizeParent=1;resizeParentMax=0;resizeLast=0;collapsible=1;marginBottom=0;whiteSpace=wrap;html=1;" parent="1" vertex="1">
          <mxGeometry x="30" y="100" width="160" height="268" as="geometry" />
        </mxCell>
        <mxCell id="N5POL5rpI1_weTUqJshR-2" value="+ Mã người dùng: int" style="text;strokeColor=none;fillColor=none;align=left;verticalAlign=top;spacingLeft=4;spacingRight=4;overflow=hidden;rotatable=0;points=[[0,0.5],[1,0.5]];portConstraint=eastwest;whiteSpace=wrap;html=1;" parent="N5POL5rpI1_weTUqJshR-1" vertex="1">
          <mxGeometry y="26" width="160" height="26" as="geometry" />
        </mxCell>
        <mxCell id="N5POL5rpI1_weTUqJshR-13" value="+ Tên người dùng: string" style="text;strokeColor=none;fillColor=none;align=left;verticalAlign=top;spacingLeft=4;spacingRight=4;overflow=hidden;rotatable=0;points=[[0,0.5],[1,0.5]];portConstraint=eastwest;whiteSpace=wrap;html=1;" parent="N5POL5rpI1_weTUqJshR-1" vertex="1">
          <mxGeometry y="52" width="160" height="26" as="geometry" />
        </mxCell>
        <mxCell id="N5POL5rpI1_weTUqJshR-14" value="+ Email người dùng: string" style="text;strokeColor=none;fillColor=none;align=left;verticalAlign=top;spacingLeft=4;spacingRight=4;overflow=hidden;rotatable=0;points=[[0,0.5],[1,0.5]];portConstraint=eastwest;whiteSpace=wrap;html=1;" parent="N5POL5rpI1_weTUqJshR-1" vertex="1">
          <mxGeometry y="78" width="160" height="26" as="geometry" />
        </mxCell>
        <mxCell id="N5POL5rpI1_weTUqJshR-15" value="+ Vai trò:string" style="text;strokeColor=none;fillColor=none;align=left;verticalAlign=top;spacingLeft=4;spacingRight=4;overflow=hidden;rotatable=0;points=[[0,0.5],[1,0.5]];portConstraint=eastwest;whiteSpace=wrap;html=1;" parent="N5POL5rpI1_weTUqJshR-1" vertex="1">
          <mxGeometry y="104" width="160" height="26" as="geometry" />
        </mxCell>
        <mxCell id="N5POL5rpI1_weTUqJshR-16" value="+ Ngày sinh:string" style="text;strokeColor=none;fillColor=none;align=left;verticalAlign=top;spacingLeft=4;spacingRight=4;overflow=hidden;rotatable=0;points=[[0,0.5],[1,0.5]];portConstraint=eastwest;whiteSpace=wrap;html=1;" parent="N5POL5rpI1_weTUqJshR-1" vertex="1">
          <mxGeometry y="130" width="160" height="26" as="geometry" />
        </mxCell>
        <mxCell id="N5POL5rpI1_weTUqJshR-3" value="" style="line;strokeWidth=1;fillColor=none;align=left;verticalAlign=middle;spacingTop=-1;spacingLeft=3;spacingRight=3;rotatable=0;labelPosition=right;points=[];portConstraint=eastwest;strokeColor=inherit;" parent="N5POL5rpI1_weTUqJshR-1" vertex="1">
          <mxGeometry y="156" width="160" height="8" as="geometry" />
        </mxCell>
        <mxCell id="N5POL5rpI1_weTUqJshR-4" value="+ Đăng nhập()" style="text;strokeColor=none;fillColor=none;align=left;verticalAlign=top;spacingLeft=4;spacingRight=4;overflow=hidden;rotatable=0;points=[[0,0.5],[1,0.5]];portConstraint=eastwest;whiteSpace=wrap;html=1;" parent="N5POL5rpI1_weTUqJshR-1" vertex="1">
          <mxGeometry y="164" width="160" height="26" as="geometry" />
        </mxCell>
        <mxCell id="N5POL5rpI1_weTUqJshR-17" value="+ Đăng xuất()" style="text;strokeColor=none;fillColor=none;align=left;verticalAlign=top;spacingLeft=4;spacingRight=4;overflow=hidden;rotatable=0;points=[[0,0.5],[1,0.5]];portConstraint=eastwest;whiteSpace=wrap;html=1;" parent="N5POL5rpI1_weTUqJshR-1" vertex="1">
          <mxGeometry y="190" width="160" height="26" as="geometry" />
        </mxCell>
        <mxCell id="N5POL5rpI1_weTUqJshR-18" value="+ Cập nhật thông tin()" style="text;strokeColor=none;fillColor=none;align=left;verticalAlign=top;spacingLeft=4;spacingRight=4;overflow=hidden;rotatable=0;points=[[0,0.5],[1,0.5]];portConstraint=eastwest;whiteSpace=wrap;html=1;" parent="N5POL5rpI1_weTUqJshR-1" vertex="1">
          <mxGeometry y="216" width="160" height="26" as="geometry" />
        </mxCell>
        <mxCell id="N5POL5rpI1_weTUqJshR-19" value="+ Xem thông tin khóa học()" style="text;strokeColor=none;fillColor=none;align=left;verticalAlign=top;spacingLeft=4;spacingRight=4;overflow=hidden;rotatable=0;points=[[0,0.5],[1,0.5]];portConstraint=eastwest;whiteSpace=wrap;html=1;" parent="N5POL5rpI1_weTUqJshR-1" vertex="1">
          <mxGeometry y="242" width="160" height="26" as="geometry" />
        </mxCell>
        <mxCell id="N5POL5rpI1_weTUqJshR-5" value="Khóa học" style="swimlane;fontStyle=1;align=center;verticalAlign=top;childLayout=stackLayout;horizontal=1;startSize=26;horizontalStack=0;resizeParent=1;resizeParentMax=0;resizeLast=0;collapsible=1;marginBottom=0;whiteSpace=wrap;html=1;" parent="1" vertex="1">
          <mxGeometry x="570" y="100" width="160" height="290" as="geometry" />
        </mxCell>
        <mxCell id="N5POL5rpI1_weTUqJshR-6" value="+ Mã Khóa học:int" style="text;strokeColor=none;fillColor=none;align=left;verticalAlign=top;spacingLeft=4;spacingRight=4;overflow=hidden;rotatable=0;points=[[0,0.5],[1,0.5]];portConstraint=eastwest;whiteSpace=wrap;html=1;" parent="N5POL5rpI1_weTUqJshR-5" vertex="1">
          <mxGeometry y="26" width="160" height="26" as="geometry" />
        </mxCell>
        <mxCell id="N5POL5rpI1_weTUqJshR-20" value="+ Tên khóa học" style="text;strokeColor=none;fillColor=none;align=left;verticalAlign=top;spacingLeft=4;spacingRight=4;overflow=hidden;rotatable=0;points=[[0,0.5],[1,0.5]];portConstraint=eastwest;whiteSpace=wrap;html=1;" parent="N5POL5rpI1_weTUqJshR-5" vertex="1">
          <mxGeometry y="52" width="160" height="26" as="geometry" />
        </mxCell>
        <mxCell id="N5POL5rpI1_weTUqJshR-21" value="+ Giảng viên" style="text;strokeColor=none;fillColor=none;align=left;verticalAlign=top;spacingLeft=4;spacingRight=4;overflow=hidden;rotatable=0;points=[[0,0.5],[1,0.5]];portConstraint=eastwest;whiteSpace=wrap;html=1;" parent="N5POL5rpI1_weTUqJshR-5" vertex="1">
          <mxGeometry y="78" width="160" height="26" as="geometry" />
        </mxCell>
        <mxCell id="N5POL5rpI1_weTUqJshR-22" value="+ Ngày bắt đầu" style="text;strokeColor=none;fillColor=none;align=left;verticalAlign=top;spacingLeft=4;spacingRight=4;overflow=hidden;rotatable=0;points=[[0,0.5],[1,0.5]];portConstraint=eastwest;whiteSpace=wrap;html=1;" parent="N5POL5rpI1_weTUqJshR-5" vertex="1">
          <mxGeometry y="104" width="160" height="26" as="geometry" />
        </mxCell>
        <mxCell id="N5POL5rpI1_weTUqJshR-23" value="+ Ngày kết thúc" style="text;strokeColor=none;fillColor=none;align=left;verticalAlign=top;spacingLeft=4;spacingRight=4;overflow=hidden;rotatable=0;points=[[0,0.5],[1,0.5]];portConstraint=eastwest;whiteSpace=wrap;html=1;" parent="N5POL5rpI1_weTUqJshR-5" vertex="1">
          <mxGeometry y="130" width="160" height="26" as="geometry" />
        </mxCell>
        <mxCell id="N5POL5rpI1_weTUqJshR-24" value="+ Trạng Thái" style="text;strokeColor=none;fillColor=none;align=left;verticalAlign=top;spacingLeft=4;spacingRight=4;overflow=hidden;rotatable=0;points=[[0,0.5],[1,0.5]];portConstraint=eastwest;whiteSpace=wrap;html=1;" parent="N5POL5rpI1_weTUqJshR-5" vertex="1">
          <mxGeometry y="156" width="160" height="26" as="geometry" />
        </mxCell>
        <mxCell id="N5POL5rpI1_weTUqJshR-7" value="" style="line;strokeWidth=1;fillColor=none;align=left;verticalAlign=middle;spacingTop=-1;spacingLeft=3;spacingRight=3;rotatable=0;labelPosition=right;points=[];portConstraint=eastwest;strokeColor=inherit;" parent="N5POL5rpI1_weTUqJshR-5" vertex="1">
          <mxGeometry y="182" width="160" height="8" as="geometry" />
        </mxCell>
        <mxCell id="N5POL5rpI1_weTUqJshR-8" value="+ Thêm sinh viên()" style="text;strokeColor=none;fillColor=none;align=left;verticalAlign=top;spacingLeft=4;spacingRight=4;overflow=hidden;rotatable=0;points=[[0,0.5],[1,0.5]];portConstraint=eastwest;whiteSpace=wrap;html=1;" parent="N5POL5rpI1_weTUqJshR-5" vertex="1">
          <mxGeometry y="190" width="160" height="26" as="geometry" />
        </mxCell>
        <mxCell id="N5POL5rpI1_weTUqJshR-25" value="+ Xóa sinh viên()" style="text;strokeColor=none;fillColor=none;align=left;verticalAlign=top;spacingLeft=4;spacingRight=4;overflow=hidden;rotatable=0;points=[[0,0.5],[1,0.5]];portConstraint=eastwest;whiteSpace=wrap;html=1;" parent="N5POL5rpI1_weTUqJshR-5" vertex="1">
          <mxGeometry y="216" width="160" height="26" as="geometry" />
        </mxCell>
        <mxCell id="N5POL5rpI1_weTUqJshR-26" value="+ Cập nhật thông tin khóa học()" style="text;strokeColor=none;fillColor=none;align=left;verticalAlign=top;spacingLeft=4;spacingRight=4;overflow=hidden;rotatable=0;points=[[0,0.5],[1,0.5]];portConstraint=eastwest;whiteSpace=wrap;html=1;" parent="N5POL5rpI1_weTUqJshR-5" vertex="1">
          <mxGeometry y="242" width="160" height="48" as="geometry" />
        </mxCell>
        <mxCell id="N5POL5rpI1_weTUqJshR-9" value="Hóa đơn" style="swimlane;fontStyle=1;align=center;verticalAlign=top;childLayout=stackLayout;horizontal=1;startSize=26;horizontalStack=0;resizeParent=1;resizeParentMax=0;resizeLast=0;collapsible=1;marginBottom=0;whiteSpace=wrap;html=1;" parent="1" vertex="1">
          <mxGeometry x="210" y="416" width="160" height="268" as="geometry" />
        </mxCell>
        <mxCell id="N5POL5rpI1_weTUqJshR-10" value="+ Mã hóa đơn" style="text;strokeColor=none;fillColor=none;align=left;verticalAlign=top;spacingLeft=4;spacingRight=4;overflow=hidden;rotatable=0;points=[[0,0.5],[1,0.5]];portConstraint=eastwest;whiteSpace=wrap;html=1;" parent="N5POL5rpI1_weTUqJshR-9" vertex="1">
          <mxGeometry y="26" width="160" height="26" as="geometry" />
        </mxCell>
        <mxCell id="N5POL5rpI1_weTUqJshR-28" value="+ Ngày tạo" style="text;strokeColor=none;fillColor=none;align=left;verticalAlign=top;spacingLeft=4;spacingRight=4;overflow=hidden;rotatable=0;points=[[0,0.5],[1,0.5]];portConstraint=eastwest;whiteSpace=wrap;html=1;" parent="N5POL5rpI1_weTUqJshR-9" vertex="1">
          <mxGeometry y="52" width="160" height="26" as="geometry" />
        </mxCell>
        <mxCell id="N5POL5rpI1_weTUqJshR-29" value="+ Trạng thái" style="text;strokeColor=none;fillColor=none;align=left;verticalAlign=top;spacingLeft=4;spacingRight=4;overflow=hidden;rotatable=0;points=[[0,0.5],[1,0.5]];portConstraint=eastwest;whiteSpace=wrap;html=1;" parent="N5POL5rpI1_weTUqJshR-9" vertex="1">
          <mxGeometry y="78" width="160" height="26" as="geometry" />
        </mxCell>
        <mxCell id="N5POL5rpI1_weTUqJshR-30" value="+ Thời hạn" style="text;strokeColor=none;fillColor=none;align=left;verticalAlign=top;spacingLeft=4;spacingRight=4;overflow=hidden;rotatable=0;points=[[0,0.5],[1,0.5]];portConstraint=eastwest;whiteSpace=wrap;html=1;" parent="N5POL5rpI1_weTUqJshR-9" vertex="1">
          <mxGeometry y="104" width="160" height="26" as="geometry" />
        </mxCell>
        <mxCell id="N5POL5rpI1_weTUqJshR-31" value="+ Mã khóa học" style="text;strokeColor=none;fillColor=none;align=left;verticalAlign=top;spacingLeft=4;spacingRight=4;overflow=hidden;rotatable=0;points=[[0,0.5],[1,0.5]];portConstraint=eastwest;whiteSpace=wrap;html=1;" parent="N5POL5rpI1_weTUqJshR-9" vertex="1">
          <mxGeometry y="130" width="160" height="26" as="geometry" />
        </mxCell>
        <mxCell id="N5POL5rpI1_weTUqJshR-32" value="+ Mã sinh viên" style="text;strokeColor=none;fillColor=none;align=left;verticalAlign=top;spacingLeft=4;spacingRight=4;overflow=hidden;rotatable=0;points=[[0,0.5],[1,0.5]];portConstraint=eastwest;whiteSpace=wrap;html=1;" parent="N5POL5rpI1_weTUqJshR-9" vertex="1">
          <mxGeometry y="156" width="160" height="26" as="geometry" />
        </mxCell>
        <mxCell id="N5POL5rpI1_weTUqJshR-11" value="" style="line;strokeWidth=1;fillColor=none;align=left;verticalAlign=middle;spacingTop=-1;spacingLeft=3;spacingRight=3;rotatable=0;labelPosition=right;points=[];portConstraint=eastwest;strokeColor=inherit;" parent="N5POL5rpI1_weTUqJshR-9" vertex="1">
          <mxGeometry y="182" width="160" height="8" as="geometry" />
        </mxCell>
        <mxCell id="N5POL5rpI1_weTUqJshR-12" value="+ Tổng hóa đơn()" style="text;strokeColor=none;fillColor=none;align=left;verticalAlign=top;spacingLeft=4;spacingRight=4;overflow=hidden;rotatable=0;points=[[0,0.5],[1,0.5]];portConstraint=eastwest;whiteSpace=wrap;html=1;" parent="N5POL5rpI1_weTUqJshR-9" vertex="1">
          <mxGeometry y="190" width="160" height="26" as="geometry" />
        </mxCell>
        <mxCell id="N5POL5rpI1_weTUqJshR-33" value="+ Phương thức thanh toán()" style="text;strokeColor=none;fillColor=none;align=left;verticalAlign=top;spacingLeft=4;spacingRight=4;overflow=hidden;rotatable=0;points=[[0,0.5],[1,0.5]];portConstraint=eastwest;whiteSpace=wrap;html=1;" parent="N5POL5rpI1_weTUqJshR-9" vertex="1">
          <mxGeometry y="216" width="160" height="26" as="geometry" />
        </mxCell>
        <mxCell id="N5POL5rpI1_weTUqJshR-34" value="+ Thông báo()&amp;nbsp;" style="text;strokeColor=none;fillColor=none;align=left;verticalAlign=top;spacingLeft=4;spacingRight=4;overflow=hidden;rotatable=0;points=[[0,0.5],[1,0.5]];portConstraint=eastwest;whiteSpace=wrap;html=1;" parent="N5POL5rpI1_weTUqJshR-9" vertex="1">
          <mxGeometry y="242" width="160" height="26" as="geometry" />
        </mxCell>
        <mxCell id="N5POL5rpI1_weTUqJshR-48" value="1-n" style="endArrow=classic;html=1;rounded=0;exitX=0.993;exitY=0.059;exitDx=0;exitDy=0;exitPerimeter=0;entryX=0;entryY=0;entryDx=0;entryDy=0;" parent="1" source="N5POL5rpI1_weTUqJshR-54" target="N5POL5rpI1_weTUqJshR-9" edge="1">
          <mxGeometry relative="1" as="geometry">
            <mxPoint x="360" y="410" as="sourcePoint" />
            <mxPoint x="460" y="410" as="targetPoint" />
          </mxGeometry>
        </mxCell>
        <mxCell id="N5POL5rpI1_weTUqJshR-118" value="n-n" style="endArrow=classic;html=1;rounded=0;exitX=1.014;exitY=0.081;exitDx=0;exitDy=0;exitPerimeter=0;entryX=-0.007;entryY=0.114;entryDx=0;entryDy=0;entryPerimeter=0;" parent="1" source="N5POL5rpI1_weTUqJshR-54" target="N5POL5rpI1_weTUqJshR-59" edge="1">
          <mxGeometry relative="1" as="geometry">
            <mxPoint x="199" y="764" as="sourcePoint" />
            <mxPoint x="220" y="426" as="targetPoint" />
            <Array as="points">
              <mxPoint x="200" y="710" />
              <mxPoint x="370" y="700" />
            </Array>
          </mxGeometry>
        </mxCell>
        <mxCell id="N5POL5rpI1_weTUqJshR-120" value="1-n" style="endArrow=classic;html=1;rounded=0;exitX=1.007;exitY=0.129;exitDx=0;exitDy=0;exitPerimeter=0;entryX=0.5;entryY=0;entryDx=0;entryDy=0;" parent="1" source="N5POL5rpI1_weTUqJshR-67" target="N5POL5rpI1_weTUqJshR-59" edge="1">
          <mxGeometry relative="1" as="geometry">
            <mxPoint x="172" y="709" as="sourcePoint" />
            <mxPoint x="529" y="593" as="targetPoint" />
            <Array as="points">
              <mxPoint x="460" y="150" />
            </Array>
          </mxGeometry>
        </mxCell>
        <mxCell id="N5POL5rpI1_weTUqJshR-50" value="kế toán" style="swimlane;fontStyle=0;childLayout=stackLayout;horizontal=1;startSize=26;fillColor=none;horizontalStack=0;resizeParent=1;resizeParentMax=0;resizeLast=0;collapsible=1;marginBottom=0;whiteSpace=wrap;html=1;" parent="1" vertex="1">
          <mxGeometry x="290" y="220" width="140" height="140" as="geometry" />
        </mxCell>
        <mxCell id="N5POL5rpI1_weTUqJshR-51" value="+ Mã kế toán" style="text;strokeColor=none;fillColor=none;align=left;verticalAlign=top;spacingLeft=4;spacingRight=4;overflow=hidden;rotatable=0;points=[[0,0.5],[1,0.5]];portConstraint=eastwest;whiteSpace=wrap;html=1;" parent="N5POL5rpI1_weTUqJshR-50" vertex="1">
          <mxGeometry y="26" width="140" height="26" as="geometry" />
        </mxCell>
        <mxCell id="N5POL5rpI1_weTUqJshR-52" value="+ Vai trò" style="text;strokeColor=none;fillColor=none;align=left;verticalAlign=top;spacingLeft=4;spacingRight=4;overflow=hidden;rotatable=0;points=[[0,0.5],[1,0.5]];portConstraint=eastwest;whiteSpace=wrap;html=1;" parent="N5POL5rpI1_weTUqJshR-50" vertex="1">
          <mxGeometry y="52" width="140" height="26" as="geometry" />
        </mxCell>
        <mxCell id="N5POL5rpI1_weTUqJshR-53" value="+ Trạng thái" style="text;strokeColor=none;fillColor=none;align=left;verticalAlign=top;spacingLeft=4;spacingRight=4;overflow=hidden;rotatable=0;points=[[0,0.5],[1,0.5]];portConstraint=eastwest;whiteSpace=wrap;html=1;" parent="N5POL5rpI1_weTUqJshR-50" vertex="1">
          <mxGeometry y="78" width="140" height="26" as="geometry" />
        </mxCell>
        <mxCell id="N5POL5rpI1_weTUqJshR-73" value="" style="line;strokeWidth=1;rotatable=0;dashed=0;labelPosition=right;align=left;verticalAlign=middle;spacingTop=0;spacingLeft=6;points=[];portConstraint=eastwest;" parent="N5POL5rpI1_weTUqJshR-50" vertex="1">
          <mxGeometry y="104" width="140" height="10" as="geometry" />
        </mxCell>
        <mxCell id="N5POL5rpI1_weTUqJshR-72" value="+ Trạng thái" style="text;strokeColor=none;fillColor=none;align=left;verticalAlign=top;spacingLeft=4;spacingRight=4;overflow=hidden;rotatable=0;points=[[0,0.5],[1,0.5]];portConstraint=eastwest;whiteSpace=wrap;html=1;" parent="N5POL5rpI1_weTUqJshR-50" vertex="1">
          <mxGeometry y="114" width="140" height="26" as="geometry" />
        </mxCell>
        <mxCell id="N5POL5rpI1_weTUqJshR-54" value="Sinh viên" style="swimlane;fontStyle=0;childLayout=stackLayout;horizontal=1;startSize=26;fillColor=none;horizontalStack=0;resizeParent=1;resizeParentMax=0;resizeLast=0;collapsible=1;marginBottom=0;whiteSpace=wrap;html=1;" parent="1" vertex="1">
          <mxGeometry x="20" y="454" width="140" height="236" as="geometry" />
        </mxCell>
        <mxCell id="N5POL5rpI1_weTUqJshR-55" value="+&amp;nbsp; Mã sinh viên" style="text;strokeColor=none;fillColor=none;align=left;verticalAlign=top;spacingLeft=4;spacingRight=4;overflow=hidden;rotatable=0;points=[[0,0.5],[1,0.5]];portConstraint=eastwest;whiteSpace=wrap;html=1;" parent="N5POL5rpI1_weTUqJshR-54" vertex="1">
          <mxGeometry y="26" width="140" height="26" as="geometry" />
        </mxCell>
        <mxCell id="N5POL5rpI1_weTUqJshR-56" value="+ Khoa" style="text;strokeColor=none;fillColor=none;align=left;verticalAlign=top;spacingLeft=4;spacingRight=4;overflow=hidden;rotatable=0;points=[[0,0.5],[1,0.5]];portConstraint=eastwest;whiteSpace=wrap;html=1;" parent="N5POL5rpI1_weTUqJshR-54" vertex="1">
          <mxGeometry y="52" width="140" height="26" as="geometry" />
        </mxCell>
        <mxCell id="N5POL5rpI1_weTUqJshR-57" value="+ Lớp&amp;nbsp;" style="text;strokeColor=none;fillColor=none;align=left;verticalAlign=top;spacingLeft=4;spacingRight=4;overflow=hidden;rotatable=0;points=[[0,0.5],[1,0.5]];portConstraint=eastwest;whiteSpace=wrap;html=1;" parent="N5POL5rpI1_weTUqJshR-54" vertex="1">
          <mxGeometry y="78" width="140" height="26" as="geometry" />
        </mxCell>
        <mxCell id="N5POL5rpI1_weTUqJshR-71" value="+ Trạng thái" style="text;strokeColor=none;fillColor=none;align=left;verticalAlign=top;spacingLeft=4;spacingRight=4;overflow=hidden;rotatable=0;points=[[0,0.5],[1,0.5]];portConstraint=eastwest;whiteSpace=wrap;html=1;" parent="N5POL5rpI1_weTUqJshR-54" vertex="1">
          <mxGeometry y="104" width="140" height="26" as="geometry" />
        </mxCell>
        <mxCell id="N5POL5rpI1_weTUqJshR-77" value="" style="line;strokeWidth=1;rotatable=0;dashed=0;labelPosition=right;align=left;verticalAlign=middle;spacingTop=0;spacingLeft=6;points=[];portConstraint=eastwest;" parent="N5POL5rpI1_weTUqJshR-54" vertex="1">
          <mxGeometry y="130" width="140" height="10" as="geometry" />
        </mxCell>
        <mxCell id="N5POL5rpI1_weTUqJshR-74" value="&lt;font face=&quot;Verdana&quot;&gt;+&amp;nbsp;&lt;font style=&quot;font-size: 13px;&quot;&gt;selectMajor()&lt;/font&gt;&lt;/font&gt;" style="text;strokeColor=none;fillColor=none;align=left;verticalAlign=top;spacingLeft=4;spacingRight=4;overflow=hidden;rotatable=0;points=[[0,0.5],[1,0.5]];portConstraint=eastwest;whiteSpace=wrap;html=1;" parent="N5POL5rpI1_weTUqJshR-54" vertex="1">
          <mxGeometry y="140" width="140" height="26" as="geometry" />
        </mxCell>
        <mxCell id="N5POL5rpI1_weTUqJshR-75" value="&lt;font face=&quot;Verdana&quot;&gt;+&amp;nbsp;&lt;font style=&quot;font-size: 12px;&quot;&gt;registerCourse&lt;/font&gt;&lt;/font&gt;&lt;div&gt;&lt;font face=&quot;Verdana&quot;&gt;&lt;font style=&quot;font-size: 12px;&quot;&gt;(courseID)&lt;/font&gt;&lt;/font&gt;&lt;/div&gt;" style="text;strokeColor=none;fillColor=none;align=left;verticalAlign=top;spacingLeft=4;spacingRight=4;overflow=hidden;rotatable=0;points=[[0,0.5],[1,0.5]];portConstraint=eastwest;whiteSpace=wrap;html=1;" parent="N5POL5rpI1_weTUqJshR-54" vertex="1">
          <mxGeometry y="166" width="140" height="44" as="geometry" />
        </mxCell>
        <mxCell id="N5POL5rpI1_weTUqJshR-76" value="&lt;font face=&quot;Verdana&quot; style=&quot;font-size: 12px;&quot;&gt;+&amp;nbsp;viewPersonalInfo()&lt;/font&gt;" style="text;strokeColor=none;fillColor=none;align=left;verticalAlign=top;spacingLeft=4;spacingRight=4;overflow=hidden;rotatable=0;points=[[0,0.5],[1,0.5]];portConstraint=eastwest;whiteSpace=wrap;html=1;" parent="N5POL5rpI1_weTUqJshR-54" vertex="1">
          <mxGeometry y="210" width="140" height="26" as="geometry" />
        </mxCell>
        <mxCell id="N5POL5rpI1_weTUqJshR-59" value="Môn học" style="swimlane;fontStyle=0;childLayout=stackLayout;horizontal=1;startSize=26;fillColor=none;horizontalStack=0;resizeParent=1;resizeParentMax=0;resizeLast=0;collapsible=1;marginBottom=0;whiteSpace=wrap;html=1;" parent="1" vertex="1">
          <mxGeometry x="520" y="570" width="140" height="114" as="geometry" />
        </mxCell>
        <mxCell id="N5POL5rpI1_weTUqJshR-60" value="+ Mã môn học" style="text;strokeColor=none;fillColor=none;align=left;verticalAlign=top;spacingLeft=4;spacingRight=4;overflow=hidden;rotatable=0;points=[[0,0.5],[1,0.5]];portConstraint=eastwest;whiteSpace=wrap;html=1;" parent="N5POL5rpI1_weTUqJshR-59" vertex="1">
          <mxGeometry y="26" width="140" height="26" as="geometry" />
        </mxCell>
        <mxCell id="N5POL5rpI1_weTUqJshR-61" value="+ Tên môn học" style="text;strokeColor=none;fillColor=none;align=left;verticalAlign=top;spacingLeft=4;spacingRight=4;overflow=hidden;rotatable=0;points=[[0,0.5],[1,0.5]];portConstraint=eastwest;whiteSpace=wrap;html=1;" parent="N5POL5rpI1_weTUqJshR-59" vertex="1">
          <mxGeometry y="52" width="140" height="26" as="geometry" />
        </mxCell>
        <mxCell id="N5POL5rpI1_weTUqJshR-78" value="" style="line;strokeWidth=1;rotatable=0;dashed=0;labelPosition=right;align=left;verticalAlign=middle;spacingTop=0;spacingLeft=6;points=[];portConstraint=eastwest;" parent="N5POL5rpI1_weTUqJshR-59" vertex="1">
          <mxGeometry y="78" width="140" height="10" as="geometry" />
        </mxCell>
        <mxCell id="N5POL5rpI1_weTUqJshR-62" value="&lt;font face=&quot;Verdana&quot; style=&quot;font-size: 12px;&quot;&gt;+&amp;nbsp;CRUD MonHoc&lt;/font&gt;" style="text;strokeColor=none;fillColor=none;align=left;verticalAlign=top;spacingLeft=4;spacingRight=4;overflow=hidden;rotatable=0;points=[[0,0.5],[1,0.5]];portConstraint=eastwest;whiteSpace=wrap;html=1;" parent="N5POL5rpI1_weTUqJshR-59" vertex="1">
          <mxGeometry y="88" width="140" height="26" as="geometry" />
        </mxCell>
        <mxCell id="N5POL5rpI1_weTUqJshR-63" value="Thời khóa biểu" style="swimlane;fontStyle=0;childLayout=stackLayout;horizontal=1;startSize=26;fillColor=none;horizontalStack=0;resizeParent=1;resizeParentMax=0;resizeLast=0;collapsible=1;marginBottom=0;whiteSpace=wrap;html=1;" parent="1" vertex="1">
          <mxGeometry x="720" y="454" width="140" height="166" as="geometry" />
        </mxCell>
        <mxCell id="N5POL5rpI1_weTUqJshR-64" value="+ Mã lịch học" style="text;strokeColor=none;fillColor=none;align=left;verticalAlign=top;spacingLeft=4;spacingRight=4;overflow=hidden;rotatable=0;points=[[0,0.5],[1,0.5]];portConstraint=eastwest;whiteSpace=wrap;html=1;" parent="N5POL5rpI1_weTUqJshR-63" vertex="1">
          <mxGeometry y="26" width="140" height="26" as="geometry" />
        </mxCell>
        <mxCell id="N5POL5rpI1_weTUqJshR-65" value="+ Ngày&amp;nbsp;" style="text;strokeColor=none;fillColor=none;align=left;verticalAlign=top;spacingLeft=4;spacingRight=4;overflow=hidden;rotatable=0;points=[[0,0.5],[1,0.5]];portConstraint=eastwest;whiteSpace=wrap;html=1;" parent="N5POL5rpI1_weTUqJshR-63" vertex="1">
          <mxGeometry y="52" width="140" height="26" as="geometry" />
        </mxCell>
        <mxCell id="N5POL5rpI1_weTUqJshR-103" value="+ Thời gian" style="text;strokeColor=none;fillColor=none;align=left;verticalAlign=top;spacingLeft=4;spacingRight=4;overflow=hidden;rotatable=0;points=[[0,0.5],[1,0.5]];portConstraint=eastwest;whiteSpace=wrap;html=1;" parent="N5POL5rpI1_weTUqJshR-63" vertex="1">
          <mxGeometry y="78" width="140" height="26" as="geometry" />
        </mxCell>
        <mxCell id="N5POL5rpI1_weTUqJshR-104" value="+ Mã khóa học" style="text;strokeColor=none;fillColor=none;align=left;verticalAlign=top;spacingLeft=4;spacingRight=4;overflow=hidden;rotatable=0;points=[[0,0.5],[1,0.5]];portConstraint=eastwest;whiteSpace=wrap;html=1;" parent="N5POL5rpI1_weTUqJshR-63" vertex="1">
          <mxGeometry y="104" width="140" height="26" as="geometry" />
        </mxCell>
        <mxCell id="N5POL5rpI1_weTUqJshR-81" value="" style="line;strokeWidth=1;rotatable=0;dashed=0;labelPosition=right;align=left;verticalAlign=middle;spacingTop=0;spacingLeft=6;points=[];portConstraint=eastwest;" parent="N5POL5rpI1_weTUqJshR-63" vertex="1">
          <mxGeometry y="130" width="140" height="10" as="geometry" />
        </mxCell>
        <mxCell id="N5POL5rpI1_weTUqJshR-66" value="+ CRUD thoikhoabieu" style="text;strokeColor=none;fillColor=none;align=left;verticalAlign=top;spacingLeft=4;spacingRight=4;overflow=hidden;rotatable=0;points=[[0,0.5],[1,0.5]];portConstraint=eastwest;whiteSpace=wrap;html=1;" parent="N5POL5rpI1_weTUqJshR-63" vertex="1">
          <mxGeometry y="140" width="140" height="26" as="geometry" />
        </mxCell>
        <mxCell id="N5POL5rpI1_weTUqJshR-67" value="Giáo viên" style="swimlane;fontStyle=0;childLayout=stackLayout;horizontal=1;startSize=26;fillColor=none;horizontalStack=0;resizeParent=1;resizeParentMax=0;resizeLast=0;collapsible=1;marginBottom=0;whiteSpace=wrap;html=1;" parent="1" vertex="1">
          <mxGeometry x="290" y="60" width="140" height="140" as="geometry" />
        </mxCell>
        <mxCell id="N5POL5rpI1_weTUqJshR-68" value="+ Mã giáo viên" style="text;strokeColor=none;fillColor=none;align=left;verticalAlign=top;spacingLeft=4;spacingRight=4;overflow=hidden;rotatable=0;points=[[0,0.5],[1,0.5]];portConstraint=eastwest;whiteSpace=wrap;html=1;" parent="N5POL5rpI1_weTUqJshR-67" vertex="1">
          <mxGeometry y="26" width="140" height="26" as="geometry" />
        </mxCell>
        <mxCell id="N5POL5rpI1_weTUqJshR-69" value="+ Môn học" style="text;strokeColor=none;fillColor=none;align=left;verticalAlign=top;spacingLeft=4;spacingRight=4;overflow=hidden;rotatable=0;points=[[0,0.5],[1,0.5]];portConstraint=eastwest;whiteSpace=wrap;html=1;" parent="N5POL5rpI1_weTUqJshR-67" vertex="1">
          <mxGeometry y="52" width="140" height="26" as="geometry" />
        </mxCell>
        <mxCell id="N5POL5rpI1_weTUqJshR-83" value="+ Trạng thái" style="text;strokeColor=none;fillColor=none;align=left;verticalAlign=top;spacingLeft=4;spacingRight=4;overflow=hidden;rotatable=0;points=[[0,0.5],[1,0.5]];portConstraint=eastwest;whiteSpace=wrap;html=1;" parent="N5POL5rpI1_weTUqJshR-67" vertex="1">
          <mxGeometry y="78" width="140" height="26" as="geometry" />
        </mxCell>
        <mxCell id="N5POL5rpI1_weTUqJshR-82" value="" style="line;strokeWidth=1;rotatable=0;dashed=0;labelPosition=right;align=left;verticalAlign=middle;spacingTop=0;spacingLeft=6;points=[];portConstraint=eastwest;" parent="N5POL5rpI1_weTUqJshR-67" vertex="1">
          <mxGeometry y="104" width="140" height="10" as="geometry" />
        </mxCell>
        <mxCell id="N5POL5rpI1_weTUqJshR-70" value="+ field: type" style="text;strokeColor=none;fillColor=none;align=left;verticalAlign=top;spacingLeft=4;spacingRight=4;overflow=hidden;rotatable=0;points=[[0,0.5],[1,0.5]];portConstraint=eastwest;whiteSpace=wrap;html=1;" parent="N5POL5rpI1_weTUqJshR-67" vertex="1">
          <mxGeometry y="114" width="140" height="26" as="geometry" />
        </mxCell>
        <mxCell id="N5POL5rpI1_weTUqJshR-86" value="" style="endArrow=diamondThin;endFill=0;endSize=24;html=1;rounded=0;entryX=0.519;entryY=1.077;entryDx=0;entryDy=0;entryPerimeter=0;exitX=0.371;exitY=-0.004;exitDx=0;exitDy=0;exitPerimeter=0;" parent="1" source="N5POL5rpI1_weTUqJshR-54" target="N5POL5rpI1_weTUqJshR-19" edge="1">
          <mxGeometry width="160" relative="1" as="geometry">
            <mxPoint x="330" y="280" as="sourcePoint" />
            <mxPoint x="490" y="280" as="targetPoint" />
          </mxGeometry>
        </mxCell>
        <mxCell id="N5POL5rpI1_weTUqJshR-87" value="" style="endArrow=diamondThin;endFill=0;endSize=24;html=1;rounded=0;entryX=0.981;entryY=0.071;entryDx=0;entryDy=0;entryPerimeter=0;exitX=-0.021;exitY=0.129;exitDx=0;exitDy=0;exitPerimeter=0;" parent="1" source="N5POL5rpI1_weTUqJshR-50" target="N5POL5rpI1_weTUqJshR-1" edge="1">
          <mxGeometry width="160" relative="1" as="geometry">
            <mxPoint x="330" y="280" as="sourcePoint" />
            <mxPoint x="490" y="280" as="targetPoint" />
          </mxGeometry>
        </mxCell>
        <mxCell id="N5POL5rpI1_weTUqJshR-88" value="" style="endArrow=diamondThin;endFill=0;endSize=24;html=1;rounded=0;entryX=0.5;entryY=0;entryDx=0;entryDy=0;exitX=-0.007;exitY=0.136;exitDx=0;exitDy=0;exitPerimeter=0;" parent="1" source="N5POL5rpI1_weTUqJshR-67" target="N5POL5rpI1_weTUqJshR-1" edge="1">
          <mxGeometry width="160" relative="1" as="geometry">
            <mxPoint x="330" y="280" as="sourcePoint" />
            <mxPoint x="490" y="280" as="targetPoint" />
          </mxGeometry>
        </mxCell>
        <mxCell id="N5POL5rpI1_weTUqJshR-93" value="1-1" style="endArrow=classic;html=1;rounded=0;exitX=-0.007;exitY=0.061;exitDx=0;exitDy=0;exitPerimeter=0;entryX=1.013;entryY=0.071;entryDx=0;entryDy=0;entryPerimeter=0;" parent="1" source="N5POL5rpI1_weTUqJshR-59" target="N5POL5rpI1_weTUqJshR-9" edge="1">
          <mxGeometry relative="1" as="geometry">
            <mxPoint x="330" y="580" as="sourcePoint" />
            <mxPoint x="490" y="580" as="targetPoint" />
          </mxGeometry>
        </mxCell>
        <mxCell id="N5POL5rpI1_weTUqJshR-94" value="1-1" style="edgeLabel;resizable=0;html=1;;align=center;verticalAlign=middle;" parent="N5POL5rpI1_weTUqJshR-93" connectable="0" vertex="1">
          <mxGeometry relative="1" as="geometry" />
        </mxCell>
        <mxCell id="N5POL5rpI1_weTUqJshR-121" value="" style="endArrow=classic;html=1;rounded=0;exitX=1;exitY=0;exitDx=0;exitDy=0;entryX=-0.029;entryY=0.09;entryDx=0;entryDy=0;entryPerimeter=0;" parent="1" source="N5POL5rpI1_weTUqJshR-59" target="N5POL5rpI1_weTUqJshR-63" edge="1">
          <mxGeometry relative="1" as="geometry">
            <mxPoint x="529" y="587" as="sourcePoint" />
            <mxPoint x="382" y="445" as="targetPoint" />
          </mxGeometry>
        </mxCell>
        <mxCell id="N5POL5rpI1_weTUqJshR-122" value="1-n" style="edgeLabel;resizable=0;html=1;;align=center;verticalAlign=middle;" parent="N5POL5rpI1_weTUqJshR-121" connectable="0" vertex="1">
          <mxGeometry relative="1" as="geometry" />
        </mxCell>
        <mxCell id="N5POL5rpI1_weTUqJshR-97" value="" style="endArrow=diamondThin;endFill=0;endSize=24;html=1;rounded=0;entryX=-0.006;entryY=1.104;entryDx=0;entryDy=0;entryPerimeter=0;exitX=0.5;exitY=0;exitDx=0;exitDy=0;" parent="1" source="N5POL5rpI1_weTUqJshR-59" target="N5POL5rpI1_weTUqJshR-26" edge="1">
          <mxGeometry width="160" relative="1" as="geometry">
            <mxPoint x="330" y="380" as="sourcePoint" />
            <mxPoint x="490" y="380" as="targetPoint" />
          </mxGeometry>
        </mxCell>
        <mxCell id="N5POL5rpI1_weTUqJshR-98" value="" style="endArrow=diamondThin;endFill=0;endSize=24;html=1;rounded=0;entryX=0.981;entryY=1.042;entryDx=0;entryDy=0;entryPerimeter=0;exitX=0.593;exitY=0.035;exitDx=0;exitDy=0;exitPerimeter=0;" parent="1" source="N5POL5rpI1_weTUqJshR-63" target="N5POL5rpI1_weTUqJshR-26" edge="1">
          <mxGeometry width="160" relative="1" as="geometry">
            <mxPoint x="330" y="380" as="sourcePoint" />
            <mxPoint x="490" y="380" as="targetPoint" />
          </mxGeometry>
        </mxCell>
        <mxCell id="N5POL5rpI1_weTUqJshR-99" value="" style="endArrow=classic;html=1;rounded=0;exitX=0.493;exitY=1.154;exitDx=0;exitDy=0;exitPerimeter=0;entryX=0.463;entryY=0.007;entryDx=0;entryDy=0;entryPerimeter=0;" parent="1" source="N5POL5rpI1_weTUqJshR-72" target="N5POL5rpI1_weTUqJshR-9" edge="1">
          <mxGeometry relative="1" as="geometry">
            <mxPoint x="330" y="500" as="sourcePoint" />
            <mxPoint x="490" y="500" as="targetPoint" />
          </mxGeometry>
        </mxCell>
        <mxCell id="N5POL5rpI1_weTUqJshR-100" value="1-n" style="edgeLabel;resizable=0;html=1;;align=center;verticalAlign=middle;" parent="N5POL5rpI1_weTUqJshR-99" connectable="0" vertex="1">
          <mxGeometry relative="1" as="geometry" />
        </mxCell>
        <mxCell id="N5POL5rpI1_weTUqJshR-105" value="Tìm kiếm" style="swimlane;fontStyle=1;align=center;verticalAlign=top;childLayout=stackLayout;horizontal=1;startSize=26;horizontalStack=0;resizeParent=1;resizeParentMax=0;resizeLast=0;collapsible=1;marginBottom=0;whiteSpace=wrap;html=1;" parent="1" vertex="1">
          <mxGeometry x="380" y="770" width="160" height="164" as="geometry" />
        </mxCell>
        <mxCell id="N5POL5rpI1_weTUqJshR-106" value="+ Tìm người dùng" style="text;strokeColor=none;fillColor=none;align=left;verticalAlign=top;spacingLeft=4;spacingRight=4;overflow=hidden;rotatable=0;points=[[0,0.5],[1,0.5]];portConstraint=eastwest;whiteSpace=wrap;html=1;" parent="N5POL5rpI1_weTUqJshR-105" vertex="1">
          <mxGeometry y="26" width="160" height="26" as="geometry" />
        </mxCell>
        <mxCell id="N5POL5rpI1_weTUqJshR-109" value="+ Tìm Khóa học" style="text;strokeColor=none;fillColor=none;align=left;verticalAlign=top;spacingLeft=4;spacingRight=4;overflow=hidden;rotatable=0;points=[[0,0.5],[1,0.5]];portConstraint=eastwest;whiteSpace=wrap;html=1;" parent="N5POL5rpI1_weTUqJshR-105" vertex="1">
          <mxGeometry y="52" width="160" height="26" as="geometry" />
        </mxCell>
        <mxCell id="N5POL5rpI1_weTUqJshR-110" value="+ Tìm môn học" style="text;strokeColor=none;fillColor=none;align=left;verticalAlign=top;spacingLeft=4;spacingRight=4;overflow=hidden;rotatable=0;points=[[0,0.5],[1,0.5]];portConstraint=eastwest;whiteSpace=wrap;html=1;" parent="N5POL5rpI1_weTUqJshR-105" vertex="1">
          <mxGeometry y="78" width="160" height="26" as="geometry" />
        </mxCell>
        <mxCell id="N5POL5rpI1_weTUqJshR-111" value="+ Tìm hóa đơn" style="text;strokeColor=none;fillColor=none;align=left;verticalAlign=top;spacingLeft=4;spacingRight=4;overflow=hidden;rotatable=0;points=[[0,0.5],[1,0.5]];portConstraint=eastwest;whiteSpace=wrap;html=1;" parent="N5POL5rpI1_weTUqJshR-105" vertex="1">
          <mxGeometry y="104" width="160" height="26" as="geometry" />
        </mxCell>
        <mxCell id="N5POL5rpI1_weTUqJshR-107" value="" style="line;strokeWidth=1;fillColor=none;align=left;verticalAlign=middle;spacingTop=-1;spacingLeft=3;spacingRight=3;rotatable=0;labelPosition=right;points=[];portConstraint=eastwest;strokeColor=inherit;" parent="N5POL5rpI1_weTUqJshR-105" vertex="1">
          <mxGeometry y="130" width="160" height="8" as="geometry" />
        </mxCell>
        <mxCell id="N5POL5rpI1_weTUqJshR-108" value="+ method(type): type" style="text;strokeColor=none;fillColor=none;align=left;verticalAlign=top;spacingLeft=4;spacingRight=4;overflow=hidden;rotatable=0;points=[[0,0.5],[1,0.5]];portConstraint=eastwest;whiteSpace=wrap;html=1;" parent="N5POL5rpI1_weTUqJshR-105" vertex="1">
          <mxGeometry y="138" width="160" height="26" as="geometry" />
        </mxCell>
        <mxCell id="ihuJr5wka7bMQnTQHHoS-1" value="" style="endArrow=none;dashed=1;html=1;rounded=0;exitX=0.5;exitY=0;exitDx=0;exitDy=0;entryX=0.994;entryY=0.03;entryDx=0;entryDy=0;entryPerimeter=0;" edge="1" parent="1" source="N5POL5rpI1_weTUqJshR-105" target="N5POL5rpI1_weTUqJshR-9">
          <mxGeometry width="50" height="50" relative="1" as="geometry">
            <mxPoint x="490" y="700" as="sourcePoint" />
            <mxPoint x="540" y="650" as="targetPoint" />
          </mxGeometry>
        </mxCell>
        <mxCell id="ihuJr5wka7bMQnTQHHoS-2" value="" style="endArrow=none;dashed=1;html=1;rounded=0;exitX=0.5;exitY=0;exitDx=0;exitDy=0;entryX=0.5;entryY=1;entryDx=0;entryDy=0;entryPerimeter=0;" edge="1" parent="1" source="N5POL5rpI1_weTUqJshR-105" target="N5POL5rpI1_weTUqJshR-66">
          <mxGeometry width="50" height="50" relative="1" as="geometry">
            <mxPoint x="470" y="780" as="sourcePoint" />
            <mxPoint x="379" y="434" as="targetPoint" />
          </mxGeometry>
        </mxCell>
        <mxCell id="ihuJr5wka7bMQnTQHHoS-3" value="" style="endArrow=none;dashed=1;html=1;rounded=0;exitX=0.5;exitY=0;exitDx=0;exitDy=0;entryX=-0.012;entryY=0.055;entryDx=0;entryDy=0;entryPerimeter=0;" edge="1" parent="1" source="N5POL5rpI1_weTUqJshR-105" target="N5POL5rpI1_weTUqJshR-5">
          <mxGeometry width="50" height="50" relative="1" as="geometry">
            <mxPoint x="480" y="790" as="sourcePoint" />
            <mxPoint x="389" y="444" as="targetPoint" />
          </mxGeometry>
        </mxCell>
        <mxCell id="ihuJr5wka7bMQnTQHHoS-4" value="" style="endArrow=none;dashed=1;html=1;rounded=0;exitX=0.5;exitY=0;exitDx=0;exitDy=0;entryX=0.479;entryY=0.923;entryDx=0;entryDy=0;entryPerimeter=0;" edge="1" parent="1" source="N5POL5rpI1_weTUqJshR-105" target="N5POL5rpI1_weTUqJshR-62">
          <mxGeometry width="50" height="50" relative="1" as="geometry">
            <mxPoint x="490" y="800" as="sourcePoint" />
            <mxPoint x="399" y="454" as="targetPoint" />
          </mxGeometry>
        </mxCell>
      </root>
    </mxGraphModel>
  </diagram>
</mxfile>
